<?xml version="1.0" encoding="UTF-8" standalone="no"?>
<!-- Created with Inkscape (http://www.inkscape.org/) -->

<svg
   xmlns:dc="http://purl.org/dc/elements/1.1/"
   xmlns:cc="http://creativecommons.org/ns#"
   xmlns:rdf="http://www.w3.org/1999/02/22-rdf-syntax-ns#"
   xmlns:svg="http://www.w3.org/2000/svg"
   xmlns="http://www.w3.org/2000/svg"
   xmlns:sodipodi="http://sodipodi.sourceforge.net/DTD/sodipodi-0.dtd"
   xmlns:inkscape="http://www.inkscape.org/namespaces/inkscape"
   width="256"
   height="256"
   viewBox="0 0 256 256"
   id="svg2"
   version="1.1"
   inkscape:version="0.91 r13725"
   sodipodi:docname="drawing.svg"
   inkscape:export-xdpi="45"
   inkscape:export-ydpi="45">
  <defs
     id="defs4" />
  <sodipodi:namedview
     id="base"
     pagecolor="#ffffff"
     bordercolor="#666666"
     borderopacity="1.0"
     inkscape:pageopacity="0.0"
     inkscape:pageshadow="2"
     inkscape:zoom="0.7"
     inkscape:cx="156.58473"
     inkscape:cy="60.534937"
     inkscape:document-units="px"
     inkscape:current-layer="layer1"
     showgrid="false"
     units="px"
     inkscape:window-width="1857"
     inkscape:window-height="1057"
     inkscape:window-x="-8"
     inkscape:window-y="-8"
     inkscape:window-maximized="1" />
  <metadata
     id="metadata7">
    <rdf:RDF>
      <cc:Work
         rdf:about="">
        <dc:format>image/svg+xml</dc:format>
        <dc:type
           rdf:resource="http://purl.org/dc/dcmitype/StillImage" />
        <dc:title></dc:title>
      </cc:Work>
    </rdf:RDF>
  </metadata>
  <g
     inkscape:label="Layer 1"
     inkscape:groupmode="layer"
     id="layer1"
     transform="translate(0,-796.36214)">
    <rect
       style="opacity:1;fill:#111111;fill-opacity:1;stroke:none;stroke-width:1;stroke-miterlimit:4;stroke-dasharray:none;stroke-opacity:1"
       id="rect3336"
       width="256"
       height="256"
       x="0"
       y="796.36212"
       ry="0" />
    <path
       id="path4164"
       d="m 228,1016.6478 c 0,4.0457 0,6.8571 -4.02831,6.8571 l -46.56453,0 c -4.02831,0 -4.02831,-2.8114 -4.02831,-6.8571 0,-4.0457 0,-6.8572 4.02831,-6.8572 l 46.49625,0 c 4.02831,0 4.02831,2.8115 4.02831,6.8572 l 0.0683,0 z m -50.59284,-61.71426 46.49625,0 c 4.02831,0 4.02831,-2.81143 4.02831,-6.85714 0,-4.04572 0,-6.85715 -4.02831,-6.85715 l -46.49625,0 c -4.02831,0 -4.02831,2.81143 -4.02831,6.85715 0,4.04571 0,6.85714 4.02831,6.85714 z m 46.49625,20.57143 -46.49625,0 c -4.02831,0 -4.02831,2.81143 -4.02831,6.85714 0,4.04571 0,6.85714 4.02831,6.85714 l 46.49625,0 c 4.02831,0 4.02831,-2.81143 4.02831,-6.85714 0,-4.04571 0,-6.85714 -4.02831,-6.85714 z m -64.17985,-41.14286 -4.9159,0 c -2.04829,1.30286 -3.96003,1.71429 -7.03247,2.33143 l 0,4.52571 5.12073,0 0,14.67429 -5.73522,0 0,5.89714 19.39051,0 0,-5.89714 -6.82765,0 0,-21.53143 z m 2.67644,55.68 c -0.88077,0 -4.04197,0.27429 -5.47577,0.48 3.61865,-3.84 7.78351,-8.57143 7.78351,-12.96 -0.13655,-5.34857 -3.82348,-8.91429 -9.28559,-8.91429 -4.02831,0 -6.62282,1.37143 -9.42215,4.38858 l 3.96003,3.97714 c 1.29726,-1.30286 2.59451,-2.60572 4.3697,-2.60572 1.91174,0 3.27726,1.09715 3.27726,3.56572 0,3.63428 -5.25728,8.22857 -11.60699,14.12571 l 0,3.97713 20.48293,0 0,-6.03427 -4.08293,0 z m -1.51574,25.98849 0,-0.2057 c 3.00417,-1.3028 4.3697,-3.2228 4.3697,-5.8972 0,-4.8 -3.82349,-7.6114 -9.83181,-7.6114 -3.27727,0 -6.0766,1.3029 -8.73939,3.5657 l 3.75521,4.3886 c 1.70691,-1.3714 3.00416,-2.1257 4.71107,-2.1257 1.84347,0 2.86761,0.8914 2.86761,2.4686 0,1.8514 -1.36553,3.0171 -5.87177,3.0171 l 0,5.1429 c 5.66694,0 6.69109,1.1657 6.69109,3.2229 0,1.7142 -1.57036,2.6057 -3.96003,2.6057 -1.91174,0 -3.82348,-0.96 -5.53039,-2.6057 l -3.27727,4.5257 c 2.04829,2.4685 5.25728,3.84 9.62697,3.84 5.66695,0 10.4463,-2.8115 10.4463,-7.9543 0,-3.4286 -2.11657,-5.5543 -5.25729,-6.4457 l 0,0.069 z"
       inkscape:connector-curvature="0"
       style="fill:#c280b6;fill-opacity:1;fill-rule:evenodd" />
    <path
       id="path4142"
       d="m 204.08333,818.36214 -51.25,0 c -3.75833,0 -6.83333,3.08571 -6.83333,6.85714 l 0,82.28572 c 0,3.77143 3.075,6.85714 6.83333,6.85714 l 68.33334,0 c 3.75833,0 6.83333,-3.08571 6.83333,-6.85714 l 0,-65.14286 -23.91667,-24 z m 17.08334,89.14286 -68.33334,0 0,-82.28572 47.83334,0 20.5,20.57143 0,61.71429 z m -41,-48.13715 -10.25,10.42286 10.25,10.28572 -3.41667,6.85714 -17.08333,-17.14286 17.08333,-17.14286 3.41667,6.72 z m 17.08333,-6.72 17.08333,17.14286 -17.08333,17.14286 -3.41667,-6.72 10.25,-10.42286 -10.25,-10.28571 3.41667,-6.85715 z"
       inkscape:connector-curvature="0"
       style="fill:#a1d971;fill-opacity:1;fill-rule:evenodd" />
    <path
       id="path4221"
       d="m 69.5,818.36218 c -21.23917,0 -38.5,17.216 -38.5,38.4 l 0,6.4 c 0,3.52 2.8875,6.4 6.41667,6.4 l 0,31.99996 c 0,7.04 14.37333,12.8 32.08333,12.8 17.71,0 32.08333,-5.76 32.08333,-12.8 l 0,-31.99996 c 3.52917,0 6.41667,-2.88 6.41667,-6.4 l 0,-6.4 c 0,-21.184 -17.26083,-38.4 -38.5,-38.4 z m 19.25,64 0,3.2 c 0,1.79196 -1.41167,3.19996 -3.20833,3.19996 -1.79667,0 -3.20834,-1.408 -3.20834,-3.19996 l 0,-3.2 c 0,-1.792 -1.41166,-3.2 -3.20833,-3.2 -1.79667,0 -3.20833,1.408 -3.20833,3.2 l 0,15.99996 c 0,1.792 -1.41167,3.2 -3.20834,3.2 -1.79666,0 -3.20833,-1.408 -3.20833,-3.2 l 0,-12.79996 c 0,-1.792 -1.41167,-3.2 -3.20833,-3.2 -1.79667,0 -3.20834,1.408 -3.20834,3.2 l 0,3.19996 c 0,3.52 -2.8875,6.4 -6.41666,6.4 -3.52917,0 -6.41667,-2.88 -6.41667,-6.4 l 0,-6.39996 c -3.52917,0 -6.41667,-2.88 -6.41667,-6.4 l 0,-11.52 c 5.83917,3.136 15.14334,5.12 25.66667,5.12 10.52333,0 19.8275,-1.984 25.66667,-5.12 l 0,11.52 c 0,3.52 -2.8875,6.4 -6.41667,6.4 z m -19.25,-19.2 c -10.78,0 -20.02,-2.624 -23.80583,-6.4 3.78583,-3.776 13.02583,-6.4 23.80583,-6.4 10.78,0 20.02,2.624 23.80583,6.4 -3.78583,3.776 -13.02583,6.4 -23.80583,6.4 z m 0,-19.2 c -17.71,0 -32.08333,5.696 -32.08333,12.8 0,-17.664 14.37333,-32 32.08333,-32 17.71,0 32.08333,14.336 32.08333,32 0,-7.04 -14.37333,-12.8 -32.08333,-12.8 z"
       inkscape:connector-curvature="0"
       style="fill:#ebcb8b;fill-opacity:1;fill-rule:evenodd" />
    <path
       id="path4232"
       d="m 56.66667,1017.5621 -6.41667,0 0,-6.4 6.41667,0 0,6.4 z M 108,979.16218 l 0,44.79992 c 0,3.52 -2.8875,6.4 -6.41667,6.4 l -64.16666,0 c -3.52917,0 -6.41667,-2.88 -6.41667,-6.4 l 0,-44.79992 c 0,-3.52 2.8875,-6.4 6.41667,-6.4 l 6.41666,0 0,-12.8 c 0,-14.08 11.55,-25.6 25.66667,-25.6 14.11667,0 25.66667,11.52 25.66667,25.6 l 0,12.8 6.41666,0 c 3.52917,0 6.41667,2.88 6.41667,6.4 z m -52.61667,-6.4 28.2975,0 0,-12.8 c 0,-7.808 -6.28833,-14.08 -14.11666,-14.08 -7.82834,0 -14.11667,6.272 -14.11667,14.08 l 0,12.8 -0.0642,0 z m 46.2,6.4 -57.75,0 0,44.79992 57.75,0 0,-44.79992 z m -44.91666,6.4 -6.41667,0 0,6.4 6.41667,0 0,-6.4 z m 0,12.8 -6.41667,0 0,6.39992 6.41667,0 0,-6.39992 z"
       inkscape:connector-curvature="0"
       style="fill:#e0404f;fill-opacity:1;fill-rule:evenodd" />
  </g>
</svg>
